<?xml version="1.0" encoding="UTF-8"?>
<svg width="323px" height="168px" viewBox="0 0 323 168" version="1.1" xmlns="http://www.w3.org/2000/svg" xmlns:xlink="http://www.w3.org/1999/xlink">
    <title>gmail-new-switch-labels-from-folders</title>
    <g id="gmail-new-switch-labels-from-folders" stroke="none" stroke-width="1" fill="none" fill-rule="evenodd">
        <g id="Gmail/frame-default-gmail-pop" transform="translate(1.000000, 1.000000)">
            <g id="Frames/desktop-light" fill="#F1F3F4" stroke="#BDC1C6" stroke-linejoin="round">
                <rect id="border-copy" x="0" y="0" width="321" height="166"></rect>
            </g>
            <g id="Group-5" transform="translate(45.000000, 37.000000)">
                <rect id="Rectangle" stroke="#BDC1C6" fill="#F8F9FA" x="0" y="0" width="268.5" height="120" rx="4"></rect>
                <g id="Group-2" transform="translate(9.000000, 27.000000)" stroke="#BDC1C6" stroke-linejoin="round">
                    <g id="Group">
                        <g id="UI/line-dark-grey" transform="translate(64.000000, 8.000000)" stroke-linecap="round">
                            <line x1="1.25675676" y1="0.5" x2="184.743243" y2="0.5" id="Line-5"></line>
                        </g>
                        <g id="UI/checkbox-light-grey" transform="translate(0.000000, 3.000000)">
                            <rect id="Rectangle" x="0" y="0" width="11" height="11"></rect>
                        </g>
                        <g id="Icons/star" transform="translate(18.000000, 0.000000)" stroke-linecap="round">
                            <polygon id="Path-4" points="5.6 5.6 8 0 10.4 5.6 16 5.6 11.2 9.6 12.8 15.2 8 12 3.2 15.2 4 9.6 0 6.4"></polygon>
                        </g>
                        <polygon id="Path" transform="translate(48.000000, 8.970684) rotate(1.000000) translate(-48.000000, -8.970684) " points="41 4 45.3288795 9.20207132 41 13.9413684 50.914549 13.9413684 55 9.20207132 50.914549 4"></polygon>
                    </g>
                    <g id="Group" transform="translate(0.000000, 23.200000)">
                        <g id="UI/line-dark-grey" transform="translate(64.000000, 8.000000)" stroke-linecap="round">
                            <line x1="1.25675676" y1="0.5" x2="184.743243" y2="0.5" id="Line-5"></line>
                        </g>
                        <g id="UI/checkbox-light-grey" transform="translate(0.000000, 3.000000)">
                            <rect id="Rectangle" x="0" y="0" width="11" height="11"></rect>
                        </g>
                        <g id="Icons/star" transform="translate(18.000000, 0.000000)" stroke-linecap="round">
                            <polygon id="Path-4" points="5.6 5.6 8 0 10.4 5.6 16 5.6 11.2 9.6 12.8 15.2 8 12 3.2 15.2 4 9.6 0 6.4"></polygon>
                        </g>
                        <polygon id="Path" transform="translate(48.000000, 8.970684) rotate(1.000000) translate(-48.000000, -8.970684) " points="41 4 45.3288795 9.20207132 41 13.9413684 50.914549 13.9413684 55 9.20207132 50.914549 4"></polygon>
                    </g>
                    <g id="Group" transform="translate(0.000000, 46.400000)">
                        <g id="UI/line-dark-grey" transform="translate(64.000000, 8.000000)" stroke-linecap="round">
                            <line x1="1.25675676" y1="0.5" x2="184.743243" y2="0.5" id="Line-5"></line>
                        </g>
                        <g id="UI/checkbox-light-grey" transform="translate(0.000000, 3.000000)">
                            <rect id="Rectangle" x="0" y="0" width="11" height="11"></rect>
                        </g>
                        <g id="Icons/star" transform="translate(18.000000, 0.000000)" stroke-linecap="round">
                            <polygon id="Path-4" points="5.6 5.6 8 0 10.4 5.6 16 5.6 11.2 9.6 12.8 15.2 8 12 3.2 15.2 4 9.6 0 6.4"></polygon>
                        </g>
                        <polygon id="Path" transform="translate(48.000000, 8.970684) rotate(1.000000) translate(-48.000000, -8.970684) " points="41 4 45.3288795 9.20207132 41 13.9413684 50.914549 13.9413684 55 9.20207132 50.914549 4"></polygon>
                    </g>
                    <g id="Group" transform="translate(0.000000, 69.600000)">
                        <g id="UI/line-dark-grey" transform="translate(64.000000, 8.000000)" stroke-linecap="round">
                            <line x1="1.25675676" y1="0.5" x2="184.743243" y2="0.5" id="Line-5"></line>
                        </g>
                        <g id="UI/checkbox-light-grey" transform="translate(0.000000, 3.000000)">
                            <rect id="Rectangle" x="0" y="0" width="11" height="11"></rect>
                        </g>
                        <g id="Icons/star" transform="translate(18.000000, 0.000000)" stroke-linecap="round">
                            <polygon id="Path-4" points="5.6 5.6 8 0 10.4 5.6 16 5.6 11.2 9.6 12.8 15.2 8 12 3.2 15.2 4 9.6 0 6.4"></polygon>
                        </g>
                        <polygon id="Path" transform="translate(48.000000, 8.970684) rotate(1.000000) translate(-48.000000, -8.970684) " points="41 4 45.3288795 9.20207132 41 13.9413684 50.914549 13.9413684 55 9.20207132 50.914549 4"></polygon>
                    </g>
                </g>
                <g id="UI/checkbox-light-grey" transform="translate(9.000000, 7.000000)" stroke="#BDC1C6" stroke-linejoin="round">
                    <rect id="Rectangle" x="0" y="0" width="11" height="11"></rect>
                </g>
                <g id="Icons/arrow-expand-sm" transform="translate(30.000000, 10.000000)" stroke="#BDC1C6" stroke-linecap="round" stroke-linejoin="round">
                    <polygon id="Path-4" points="0 0 8.5 0 4.5 5.5"></polygon>
                </g>
                <g id="refresh_BASELINE_NV200_24dp" transform="translate(51.000000, 6.000000)" fill="#BDC1C6" fill-rule="nonzero">
                    <path d="M5.98993289,11.9798658 C4.31275168,11.9798658 2.89513423,11.4008389 1.73708054,10.2427852 C0.579026846,9.08473154 0,7.66711409 0,5.98993289 C0,4.31275168 0.579026846,2.89513423 1.73708054,1.73708054 C2.89513423,0.579026846 4.31275168,0 5.98993289,0 C6.92170022,0 7.80355145,0.206319911 8.63548658,0.618959732 C9.4674217,1.03159955 10.156264,1.61728188 10.7020134,2.37600671 L10.7020134,0 L11.9,0 L11.9,4.89177852 L7.02818792,4.89177852 L7.02818792,3.69379195 L10.1828859,3.69379195 C9.75693512,2.92175615 9.1712528,2.31277964 8.42583893,1.86686242 C7.68042506,1.42094519 6.86845638,1.19798658 5.98993289,1.19798658 C4.65883669,1.19798658 3.52740492,1.66387025 2.59563758,2.59563758 C1.66387025,3.52740492 1.19798658,4.65883669 1.19798658,5.98993289 C1.19798658,7.32102908 1.66387025,8.45246085 2.59563758,9.38422819 C3.52740492,10.3159955 4.65883669,10.7818792 5.98993289,10.7818792 C7.01487696,10.7818792 7.93998881,10.489038 8.76526846,9.9033557 C9.5905481,9.31767338 10.1695749,8.54563758 10.502349,7.58724832 L11.7602349,7.58724832 C11.4008389,8.8917226 10.6853747,9.94994407 9.61384228,10.7619128 C8.54230984,11.5738814 7.33434004,11.9798658 5.98993289,11.9798658 Z" id="Path"></path>
                </g>
            </g>
            <g id="Group-3" transform="translate(5.000000, 40.000000)">
                <rect id="Rectangle" fill="#3C4043" x="0" y="0" width="36" height="24" rx="12"></rect>
                <g id="mail_BASELINE_P900_24dp-(3)" transform="translate(10.000000, 5.000000)" fill="#FFFFFF" fill-rule="nonzero">
                    <path d="M1.53472222,13.2222222 C1.09398148,13.2222222 0.728009259,13.0766204 0.436805556,12.7854167 C0.145601852,12.494213 0,12.1282407 0,11.6875 L0,1.53472222 C0,1.09398148 0.145601852,0.728009259 0.436805556,0.436805556 C0.728009259,0.145601852 1.09398148,0 1.53472222,0 L15.4652778,0 C15.9060185,0 16.2719907,0.145601852 16.5631944,0.436805556 C16.8543981,0.728009259 17,1.09398148 17,1.53472222 L17,11.6875 C17,12.1282407 16.8543981,12.494213 16.5631944,12.7854167 C16.2719907,13.0766204 15.9060185,13.2222222 15.4652778,13.2222222 L1.53472222,13.2222222 Z M8.5,6.72916667 L0.944444444,1.77083333 L0.944444444,11.6875 C0.944444444,11.8606481 0.999537037,12.0023148 1.10972222,12.1125 C1.21990741,12.2226852 1.36157407,12.2777778 1.53472222,12.2777778 L15.4652778,12.2777778 C15.6384259,12.2777778 15.7800926,12.2226852 15.8902778,12.1125 C16.000463,12.0023148 16.0555556,11.8606481 16.0555556,11.6875 L16.0555556,1.77083333 L8.5,6.72916667 Z M8.5,5.66666667 L15.7722222,0.944444444 L1.22777778,0.944444444 L8.5,5.66666667 Z M16.0555556,1.77083333 L15.7722222,0.944444444 L1.22777778,0.944444444 L0.944444444,1.77083333 L0.944444444,11.6875 C0.944444444,11.8606481 0.999537037,12.0023148 1.10972222,12.1125 C1.21990741,12.2226852 1.36157407,12.2777778 1.53472222,12.2777778 L15.4652778,12.2777778 C15.6384259,12.2777778 15.7800926,12.2226852 15.8902778,12.1125 C16.000463,12.0023148 16.0555556,11.8606481 16.0555556,11.6875 L16.0555556,1.77083333 Z" id="Shape"></path>
                </g>
            </g>
            <g id="Group-6" transform="translate(17.000000, 7.000000)">
                <g id="Group-6" transform="translate(27.956522, 3.956522)">
                    <g id="Group" fill="#FFFFFF">
                        <path d="M1.243698,0.858350892 L2.77920706,0.858350892 C3.4660825,0.858350892 4.02290506,1.41517345 4.02290506,2.10204889 L4.02290506,14.0426206 L4.02290506,14.0426206 L1.243698,14.0426206 C0.556822561,14.0426206 9.99219893e-16,13.485798 0,12.7989226 L0,2.10204889 C-8.41179808e-17,1.41517345 0.556822561,0.858350892 1.243698,0.858350892 Z" id="Rectangle" stroke="#3C4043"></path>
                        <path d="M16.5307372,0.858350892 L17.9053301,0.858350892 C18.5922055,0.858350892 19.1490281,1.41517345 19.1490281,2.10204889 L19.1490281,12.7989226 C19.1490281,13.485798 18.5922055,14.0426206 17.9053301,14.0426206 L15.2870392,14.0426206 L15.2870392,14.0426206 L15.2870392,2.10204889 C15.2870392,1.41517345 15.8438618,0.858350892 16.5307372,0.858350892 Z" id="Rectangle" stroke="#3C4043"></path>
                        <path d="M16.710053,0.343530746 C17.2488524,-0.0824892744 18.0309931,0.00893648976 18.4570132,0.547735906 L18.4570132,0.547735906 L18.9346703,1.15184219 C19.3554698,1.68403907 19.2720967,2.45528893 18.7472851,2.88526405 L18.7472851,2.88526405 L9.65497214,10.3345447 L0.562659137,2.88526405 C0.0378476105,2.45528893 -0.0455254856,1.68403907 0.375274017,1.15184219 L0.852931125,0.547735906 C1.27895115,0.00893648976 2.06109184,-0.0824892744 2.59989125,0.343530746 L2.62245464,0.361803302 L2.62245464,0.361803302 L9.6546365,6.19292877 L16.6874896,0.361803302 C16.6912145,0.358714083 16.6949574,0.355646656 16.698718,0.352601178 Z" id="Combined-Shape" stroke="#3C4043" fill-opacity="0.54"></path>
                        <path d="M15.2870392,5.80245203 L15.2870392,1.68236775 C16.8962012,-0.24033825 18.1030728,-0.515010535 18.9076538,0.858350892 C19.7122348,2.23171232 18.5053633,3.87974603 15.2870392,5.80245203 Z" id="Path-4"></path>
                        <path d="M0,5.80245203 L0,1.68236775 C1.60916202,-0.24033825 2.81603354,-0.515010535 3.62061455,0.858350892 C4.42519556,2.23171232 3.21832405,3.87974603 0,5.80245203 Z" id="Path-4" transform="translate(1.930994, 2.901226) scale(-1, 1) translate(-1.930994, -2.901226) "></path>
                    </g>
                    <g id="Group" stroke="#3C4043">
                        <path d="M1.243698,0.858350892 L2.77920706,0.858350892 C3.4660825,0.858350892 4.02290506,1.41517345 4.02290506,2.10204889 L4.02290506,14.0426206 L4.02290506,14.0426206 L1.243698,14.0426206 C0.556822561,14.0426206 -1.37926624e-16,13.485798 0,12.7989226 L0,2.10204889 C-8.41179808e-17,1.41517345 0.556822561,0.858350892 1.243698,0.858350892 Z" id="Rectangle" fill="#8AB4F8"></path>
                        <path d="M16.6461771,0.858350892 L18.030215,0.858350892 C18.7170905,0.858350892 19.273913,1.41517345 19.273913,2.10204889 L19.273913,12.7989226 C19.273913,13.485798 18.7170905,14.0426206 18.030215,14.0426206 L15.4024791,14.0426206 L15.4024791,14.0426206 L15.4024791,2.10204889 C15.4024791,1.41517345 15.9593017,0.858350892 16.6461771,0.858350892 Z" id="Rectangle" fill="#81C995"></path>
                        <path d="M16.710053,0.343530746 C17.2488524,-0.0824892744 18.0309931,0.00893648977 18.4570132,0.547735906 L18.4570132,0.547735906 L18.9346703,1.15184219 C19.3554698,1.68403907 19.2720967,2.45528893 18.7472851,2.88526405 L18.7472851,2.88526405 L9.65497214,10.3345447 L0.562659137,2.88526405 C0.0378476105,2.45528893 -0.0455254856,1.68403907 0.375274017,1.15184219 L0.852931125,0.547735906 C1.27895115,0.00893648976 2.06109184,-0.0824892744 2.59989125,0.343530746 C2.60748322,0.349533596 2.61500487,0.355624863 2.62245464,0.361803302 L9.65431431,6.1929232 L16.6874896,0.361803302 L16.6874896,0.361803302 Z" id="Combined-Shape" fill-opacity="0.54" fill="#EA4335"></path>
                        <path d="M15.2870392,5.80245203 L15.2870392,1.68236775 C16.8962012,-0.24033825 18.1030728,-0.515010535 18.9076538,0.858350892 C19.7122348,2.23171232 18.5053633,3.87974603 15.2870392,5.80245203 Z" id="Path-4" fill="#FCC934"></path>
                        <path d="M0,5.80245203 L0,1.68236775 C1.60916202,-0.24033825 2.81603354,-0.515010535 3.62061455,0.858350892 C4.42519556,2.23171232 3.21832405,3.87974603 0,5.80245203 Z" id="Path-4" fill="#C5221F" transform="translate(1.930994, 2.901226) scale(-1, 1) translate(-1.930994, -2.901226) "></path>
                    </g>
                </g>
                <g id="UI/menu-dark-grey" transform="translate(0.000000, 8.000000)" stroke="#BDC1C6" stroke-linecap="round" stroke-linejoin="round">
                    <line x1="1.40946282e-16" y1="0.40625" x2="13" y2="0.40625" id="Line"></line>
                    <line x1="1.40946282e-16" y1="4.30625" x2="13" y2="4.30625" id="Line"></line>
                    <line x1="1.40946282e-16" y1="8.20625" x2="13" y2="8.20625" id="Line"></line>
                </g>
                <g id="Group-4" transform="translate(56.000000, 0.000000)" stroke="#BDC1C6">
                    <rect id="Rectangle" x="0.5" y="0.5" width="139" height="23" rx="2"></rect>
                    <g id="Group" transform="translate(9.000000, 6.000000)">
                        <circle id="Oval" cx="4.94117647" cy="4.94117647" r="4.94117647"></circle>
                        <line x1="8.82352941" y1="8.82352941" x2="11.8183346" y2="11.8183346" id="Line-6" stroke-linecap="square"></line>
                    </g>
                </g>
            </g>
            <g id="Group-7" transform="translate(38.000000, 23.000000)">
                <path d="M17.925,0 L67,0 C73.627417,-5.32740867e-15 79,5.372583 79,12 L79,130 C79,136.627417 73.627417,142 67,142 L17.925,142 C11.297583,142 5.925,136.627417 5.925,130 L5.925,34.2841187 L5.925,34.2841187 L0,27.1083374 L5.925,20.9325562 L5.925,12 C5.925,5.372583 11.297583,-5.88799061e-15 17.925,0 Z" id="Rectangle" stroke="#3C4043" fill="#FFFFFF"></path>
                <g id="edit_BASELINE_P900_20dp" transform="translate(16.000000, 10.000000)" fill="#BDC1C6" fill-rule="nonzero">
                    <path d="M1.19721988,14.9185642 L2.44796867,14.9185642 L13.3012825,4.66566562 L12.7020198,4.07630543 L12.0766454,3.51155318 L1.19721988,13.7398439 L1.19721988,14.9185642 Z M0,16.0468383 L0,13.2526066 L13.6812073,0.359275939 C13.9170827,0.119758646 14.1982183,0 14.5246141,0 C14.8510099,0 15.1412846,0.119758646 15.3954381,0.359275939 L16.6461869,1.53799631 C16.8820623,1.74306249 17,2.01231438 17,2.34575198 C17,2.67918958 16.8820623,2.95664411 16.6461869,3.17811558 L2.96497965,16.0468383 L0,16.0468383 Z M15.8027801,2.33283281 L14.5520313,1.15288204 L15.8027801,2.33283281 Z M13.3012825,4.66566562 L12.7020198,4.07630543 L12.0766454,3.51155318 L12.0766454,3.48571485 L13.3012825,4.66566562 Z" id="Shape"></path>
                </g>
                <line x1="41" y1="20.5" x2="68" y2="20.5" id="Line-2" stroke="#BDC1C6" stroke-linecap="round"></line>
                <g id="Group-2" transform="translate(41.000000, 32.500000)" stroke="#BDC1C6" stroke-linecap="round">
                    <line x1="1.11022302e-16" y1="0.5" x2="27" y2="0.5" id="Line-2"></line>
                </g>
                <g id="Group-3" transform="translate(41.000000, 45.500000)" stroke="#BDC1C6" stroke-linecap="round">
                    <line x1="1.11022302e-16" y1="0.5" x2="27" y2="0.5" id="Line-2"></line>
                </g>
            </g>
        </g>
        <g id="LABELS" transform="translate(56.687744, 84.066895)" fill="#3C4043" fill-rule="nonzero">
            <polygon id="Path" points="1.30517578 6.89111328 4.8984375 6.89111328 4.8984375 7.93310547 0 7.93310547 0 0.112792969 1.30517578 0.112792969"></polygon>
            <path d="M10.1889648,6.10693359 L7.12744141,6.10693359 L6.50439453,7.93310547 L5.18310547,7.93310547 L8.05664062,0.112792969 L9.29199219,0.112792969 L12.1333008,7.93310547 L10.8066406,7.93310547 L10.1889648,6.10693359 Z M7.50341797,5.01660156 L9.81835938,5.01660156 L8.68505859,1.67578125 L8.65283203,1.67578125 L7.50341797,5.01660156 Z" id="Shape"></path>
            <path d="M13.0410156,7.93310547 L13.0410156,0.112792969 L15.640625,0.112792969 C16.5071615,0.112792969 17.1839193,0.290934245 17.6708984,0.647216797 C18.1578776,1.00349935 18.4013672,1.53613281 18.4013672,2.24511719 C18.4013672,2.59960938 18.2993164,2.91650391 18.0952148,3.19580078 C17.8911133,3.47509766 17.6082357,3.68277995 17.246582,3.81884766 C17.7120768,3.9226888 18.0701497,4.14648438 18.3208008,4.49023438 C18.5714518,4.83398438 18.6967773,5.23323568 18.6967773,5.68798828 C18.6967773,6.42203776 18.4568685,6.97973633 17.9770508,7.36108398 C17.4972331,7.74243164 16.8347982,7.93310547 15.9897461,7.93310547 L13.0410156,7.93310547 Z M14.3461914,4.37744141 L14.3461914,6.89111328 L15.9897461,6.89111328 C16.440918,6.89111328 16.7882487,6.78816732 17.0317383,6.58227539 C17.2752279,6.37638346 17.3969727,6.07828776 17.3969727,5.68798828 C17.3969727,5.2726237 17.2949219,4.95035807 17.0908203,4.72119141 C16.8867188,4.49202474 16.5680339,4.37744141 16.1347656,4.37744141 L14.3461914,4.37744141 Z M14.3461914,3.40527344 L15.7856445,3.40527344 C16.1902669,3.40527344 16.509847,3.30948893 16.7443848,3.11791992 C16.9789225,2.92635091 17.0961914,2.65511068 17.0961914,2.30419922 C17.0961914,1.91748047 16.9726562,1.63012695 16.7255859,1.44213867 C16.4785156,1.25415039 16.116862,1.16015625 15.640625,1.16015625 L14.3461914,1.16015625 L14.3461914,3.40527344 Z" id="Shape"></path>
            <polygon id="Path" points="24.8144531 4.41503906 21.3930664 4.41503906 21.3930664 6.89111328 25.3623047 6.89111328 25.3623047 7.93310547 20.0878906 7.93310547 20.0878906 0.112792969 25.324707 0.112792969 25.324707 1.16015625 21.3930664 1.16015625 21.3930664 3.36767578 24.8144531 3.36767578"></polygon>
            <polygon id="Path" points="27.7685547 6.89111328 31.3618164 6.89111328 31.3618164 7.93310547 26.4633789 7.93310547 26.4633789 0.112792969 27.7685547 0.112792969"></polygon>
            <path d="M36.6523437,5.92431641 C36.6523437,5.59847005 36.5314941,5.33170573 36.2897949,5.12402344 C36.0480957,4.91634115 35.6210937,4.73014323 35.0087891,4.56542969 C34.1350911,4.33626302 33.4628092,4.03279622 32.9919434,3.6550293 C32.5210775,3.27726237 32.2856445,2.78222656 32.2856445,2.16992188 C32.2856445,1.53971354 32.5461426,1.02050781 33.0671387,0.612304688 C33.5881348,0.204101562 34.2604167,0 35.0839844,0 C35.9433594,0 36.6335449,0.230957031 37.154541,0.692871094 C37.6755371,1.15478516 37.9270833,1.70979818 37.9091797,2.35791016 L37.8984375,2.39013672 L36.6469727,2.39013672 C36.6469727,1.98909505 36.5109049,1.66414388 36.2387695,1.4152832 C35.9666341,1.16642253 35.578125,1.04199219 35.0732422,1.04199219 C34.5970052,1.04199219 34.2308757,1.14583333 33.9748535,1.35351562 C33.7188314,1.56119792 33.5908203,1.8297526 33.5908203,2.15917969 C33.5908203,2.45638021 33.7295736,2.70345052 34.0070801,2.90039062 C34.2845866,3.09733073 34.7438151,3.28352865 35.3847656,3.45898438 C36.226237,3.68457031 36.8653971,3.99609375 37.3022461,4.39355469 C37.7390951,4.79101562 37.9575195,5.2976888 37.9575195,5.91357422 C37.9575195,6.56526693 37.6970215,7.08357747 37.1760254,7.46850586 C36.6550293,7.85343424 35.9702148,8.04589844 35.121582,8.04589844 C34.3051758,8.04589844 33.5890299,7.83015951 32.9731445,7.39868164 C32.3572591,6.96720378 32.0582682,6.37548828 32.0761719,5.62353516 L32.0869141,5.59130859 L33.34375,5.59130859 C33.34375,6.06754557 33.5084635,6.42293294 33.8378906,6.6574707 C34.1673177,6.89200846 34.5952148,7.00927734 35.121582,7.00927734 C35.6049805,7.00927734 35.980957,6.91170247 36.2495117,6.71655273 C36.5180664,6.52140299 36.6523437,6.25732422 36.6523437,5.92431641 Z" id="Path"></path>
        </g>
        <g id="Group-10" transform="translate(57.000000, 101.000000)">
            <line x1="23" y1="6.5" x2="50" y2="6.5" id="Line-2" stroke="#3C4043" stroke-linecap="round"></line>
            <g id="label_BASELINE_P900_24dp" fill="#FF7537" fill-rule="nonzero">
                <path d="M15.75,6 L12.175,11.025 C11.9583333,11.325 11.696,11.5626667 11.388,11.738 C11.0793333,11.9126667 10.7416667,12 10.375,12 L1.6,12 C1.15,12 0.771,11.8416667 0.463,11.525 C0.154333333,11.2083333 0,10.825 0,10.375 L0,1.625 C0,1.175 0.154333333,0.791666667 0.463,0.475 C0.771,0.158333333 1.15,0 1.6,0 L10.375,0 C10.7416667,0 11.0833333,0.0833333333 11.4,0.25 C11.7166667,0.416666667 11.975,0.641666667 12.175,0.925 L15.75,6 Z M1,6 L1,10.5 C1,10.6333333 1,10.75 1,10.85 C1,10.95 1,11 1,11 C1,11 1,10.9373333 1,10.812 C1,10.6873333 1,10.5416667 1,10.375 L1,1.625 C1,1.45833333 1,1.31266667 1,1.188 C1,1.06266667 1,1 1,1 C1,1 1,1.05 1,1.15 C1,1.25 1,1.36666667 1,1.5 L1,6 Z" id="Shape"></path>
            </g>
        </g>
        <g id="Group-8" transform="translate(57.000000, 121.000000)">
            <g id="Group-2" transform="translate(23.000000, 6.000000)" stroke="#3C4043" stroke-linecap="round">
                <line x1="1.11022302e-16" y1="0.5" x2="27" y2="0.5" id="Line-2"></line>
            </g>
            <g id="label_BASELINE_P900_24dp" fill="#A2DCC1" fill-rule="nonzero">
                <path d="M15.75,6 L12.175,11.025 C11.9583333,11.325 11.696,11.5626667 11.388,11.738 C11.0793333,11.9126667 10.7416667,12 10.375,12 L1.6,12 C1.15,12 0.771,11.8416667 0.463,11.525 C0.154333333,11.2083333 0,10.825 0,10.375 L0,1.625 C0,1.175 0.154333333,0.791666667 0.463,0.475 C0.771,0.158333333 1.15,0 1.6,0 L10.375,0 C10.7416667,0 11.0833333,0.0833333333 11.4,0.25 C11.7166667,0.416666667 11.975,0.641666667 12.175,0.925 L15.75,6 Z M1,6 L1,10.5 C1,10.6333333 1,10.75 1,10.85 C1,10.95 1,11 1,11 C1,11 1,10.9373333 1,10.812 C1,10.6873333 1,10.5416667 1,10.375 L1,1.625 C1,1.45833333 1,1.31266667 1,1.188 C1,1.06266667 1,1 1,1 C1,1 1,1.05 1,1.15 C1,1.25 1,1.36666667 1,1.5 L1,6 Z" id="Shape"></path>
            </g>
        </g>
        <g id="Group-9" transform="translate(57.000000, 141.000000)">
            <g id="Group-3" transform="translate(23.000000, 6.000000)" stroke="#3C4043" stroke-linecap="round">
                <line x1="1.11022302e-16" y1="0.5" x2="27" y2="0.5" id="Line-2"></line>
            </g>
            <g id="label_BASELINE_P900_24dp" fill="#B6CFF5" fill-rule="nonzero">
                <path d="M15.75,6 L12.175,11.025 C11.9583333,11.325 11.696,11.5626667 11.388,11.738 C11.0793333,11.9126667 10.7416667,12 10.375,12 L1.6,12 C1.15,12 0.771,11.8416667 0.463,11.525 C0.154333333,11.2083333 0,10.825 0,10.375 L0,1.625 C0,1.175 0.154333333,0.791666667 0.463,0.475 C0.771,0.158333333 1.15,0 1.6,0 L10.375,0 C10.7416667,0 11.0833333,0.0833333333 11.4,0.25 C11.7166667,0.416666667 11.975,0.641666667 12.175,0.925 L15.75,6 Z M1,6 L1,10.5 C1,10.6333333 1,10.75 1,10.85 C1,10.95 1,11 1,11 C1,11 1,10.9373333 1,10.812 C1,10.6873333 1,10.5416667 1,10.375 L1,1.625 C1,1.45833333 1,1.31266667 1,1.188 C1,1.06266667 1,1 1,1 C1,1 1,1.05 1,1.15 C1,1.25 1,1.36666667 1,1.5 L1,6 Z" id="Shape"></path>
            </g>
        </g>
    </g>
</svg>